<svg preserveAspectRatio="none" overflow="visible" style="display: block;" width="20" height="20" viewBox="0 0 20 20" fill="none" xmlns="http://www.w3.org/2000/svg">
<g id="star" clip-path="url(#clip0_0_435)">
<path id="Vector" d="M9.0651 2.46258C9.39163 1.60248 10.6084 1.60248 10.9349 2.46258L12.5963 6.83879C12.7437 7.22711 13.1158 7.48387 13.5312 7.48387H17.4381C18.4053 7.48387 18.8091 8.72024 18.0283 9.2911L14.8906 11.5854C14.5503 11.8342 14.4026 12.2696 14.5213 12.6741L15.8711 17.275C16.1369 18.1809 15.1148 18.9166 14.3401 18.3771L10.5715 15.7528C10.228 15.5136 9.77198 15.5136 9.42854 15.7528L5.6599 18.3771C4.88516 18.9166 3.86311 18.1809 4.12888 17.275L5.4787 12.6741C5.59737 12.2696 5.44965 11.8342 5.10938 11.5854L1.97166 9.2911C1.19092 8.72024 1.59471 7.48387 2.56189 7.48387H6.46882C6.88418 7.48387 7.2563 7.22711 7.40372 6.83879L9.0651 2.46258Z" fill="#090909"/>
</g>
<defs>
<clipPath id="clip0_0_435">
<rect width="20" height="20" fill="white"/>
</clipPath>
</defs>
</svg>
